{
	"asset":{
		"generator":"Khronos glTF Blender I/O v4.5.48",
		"version":"2.0"
	},
	"scene":0,
	"scenes":[
		{
			"name":"Scene",
			"nodes":[
				0,
				1,
				2,
				3,
				4,
				5
			]
		}
	],
	"nodes":[
		{
			"mesh":0,
			"name":"Lamborghini_Aventador_Body"
		},
		{
			"mesh":1,
			"name":"Lamborghini_Aventador_Glass"
		},
		{
			"mesh":2,
			"name":"Lamborghini_Aventador_Wheel_FL"
		},
		{
			"mesh":3,
			"name":"Lamborghini_Aventador_Wheel_FR"
		},
		{
			"mesh":4,
			"name":"Lamborghini_Aventador_Wheel_RL"
		},
		{
			"mesh":5,
			"name":"Lamborghini_Aventador_Wheel_RR"
		}
	],
	"materials":[
		{
			"name":"_Lamborghini_AventadorLamborghini_Aventador_BodySG",
			"pbrMetallicRoughness":{
				"baseColorTexture":{
					"index":0
				},
				"metallicRoughnessTexture":{
					"index":1
				},
				"roughnessFactor":0.9819999933242798
			}
		},
		{
			"alphaMode":"BLEND",
			"doubleSided":true,
			"name":"_Lamborghini_AventadorLamborghini_Aventador_GlassSG",
			"pbrMetallicRoughness":{
				"baseColorFactor":[
					0,
					0,
					0,
					0.9399999976158142
				],
				"metallicFactor":0,
				"roughnessFactor":0.9956899881362915
			}
		}
	],
	"meshes":[
		{
			"name":"Lamborghini_Aventador_Body_1",
			"primitives":[
				{
					"attributes":{
						"POSITION":0,
						"NORMAL":1,
						"TEXCOORD_0":2
					},
					"indices":3,
					"material":0
				}
			]
		},
		{
			"name":"Lamborghini_Aventador_Glass_1",
			"primitives":[
				{
					"attributes":{
						"POSITION":4,
						"NORMAL":5,
						"TEXCOORD_0":6
					},
					"indices":7,
					"material":1
				}
			]
		},
		{
			"name":"Lamborghini_Aventador_Wheel_FL_1",
			"primitives":[
				{
					"attributes":{
						"POSITION":8,
						"NORMAL":9,
						"TEXCOORD_0":10
					},
					"indices":11,
					"material":0
				}
			]
		},
		{
			"name":"Lamborghini_Aventador_Wheel_FR_1",
			"primitives":[
				{
					"attributes":{
						"POSITION":12,
						"NORMAL":13,
						"TEXCOORD_0":14
					},
					"indices":15,
					"material":0
				}
			]
		},
		{
			"name":"Lamborghini_Aventador_Wheel_RL_1",
			"primitives":[
				{
					"attributes":{
						"POSITION":16,
						"NORMAL":17,
						"TEXCOORD_0":18
					},
					"indices":19,
					"material":0
				}
			]
		},
		{
			"name":"Lamborghini_Aventador_Wheel_RR_1",
			"primitives":[
				{
					"attributes":{
						"POSITION":20,
						"NORMAL":21,
						"TEXCOORD_0":22
					},
					"indices":23,
					"material":0
				}
			]
		}
	],
	"textures":[
		{
			"sampler":0,
			"source":0
		},
		{
			"sampler":0,
			"source":1
		}
	],
	"images":[
		{
			"mimeType":"image/jpeg",
			"name":"Lamborginhi Aventador_diffuse",
			"uri":"Lamborginhi%20Aventador_diffuse.jpg"
		},
		{
			"mimeType":"image/png",
			"name":"Lamborginhi Aventador_spec",
			"uri":"Lamborginhi%20Aventador_spec.png"
		}
	],
	"accessors":[
		{
			"bufferView":0,
			"componentType":5126,
			"count":19139,
			"max":[
				95.55989837646484,
				117.59369659423828,
				217.67140197753906
			],
			"min":[
				-134.6428985595703,
				12.992300033569336,
				-271.769287109375
			],
			"type":"VEC3"
		},
		{
			"bufferView":1,
			"componentType":5126,
			"count":19139,
			"type":"VEC3"
		},
		{
			"bufferView":2,
			"componentType":5126,
			"count":19139,
			"type":"VEC2"
		},
		{
			"bufferView":3,
			"componentType":5123,
			"count":21804,
			"type":"SCALAR"
		},
		{
			"bufferView":4,
			"componentType":5126,
			"count":384,
			"max":[
				68.34880065917969,
				110.94429779052734,
				187.12869262695312
			],
			"min":[
				-107.43170166015625,
				52.842098236083984,
				-88.46549987792969
			],
			"type":"VEC3"
		},
		{
			"bufferView":5,
			"componentType":5126,
			"count":384,
			"type":"VEC3"
		},
		{
			"bufferView":6,
			"componentType":5126,
			"count":384,
			"type":"VEC2"
		},
		{
			"bufferView":7,
			"componentType":5123,
			"count":384,
			"type":"SCALAR"
		},
		{
			"bufferView":8,
			"componentType":5126,
			"count":1345,
			"max":[
				81.13829803466797,
				69.15760040283203,
				133.99749755859375
			],
			"min":[
				50.63690185546875,
				0.04039999842643738,
				64.88009643554688
			],
			"type":"VEC3"
		},
		{
			"bufferView":9,
			"componentType":5126,
			"count":1345,
			"type":"VEC3"
		},
		{
			"bufferView":10,
			"componentType":5126,
			"count":1345,
			"type":"VEC2"
		},
		{
			"bufferView":11,
			"componentType":5123,
			"count":2142,
			"type":"SCALAR"
		},
		{
			"bufferView":12,
			"componentType":5126,
			"count":1339,
			"max":[
				-89.71980285644531,
				69.15760040283203,
				133.99749755859375
			],
			"min":[
				-120.22119903564453,
				0.04039999842643738,
				64.88009643554688
			],
			"type":"VEC3"
		},
		{
			"bufferView":13,
			"componentType":5126,
			"count":1339,
			"type":"VEC3"
		},
		{
			"bufferView":14,
			"componentType":5126,
			"count":1339,
			"type":"VEC2"
		},
		{
			"bufferView":15,
			"componentType":5123,
			"count":2142,
			"type":"SCALAR"
		},
		{
			"bufferView":16,
			"componentType":5126,
			"count":1349,
			"max":[
				81.94020080566406,
				72.79190063476562,
				-139.09230041503906
			],
			"min":[
				49.83489990234375,
				0.04039999842643738,
				-211.843994140625
			],
			"type":"VEC3"
		},
		{
			"bufferView":17,
			"componentType":5126,
			"count":1349,
			"type":"VEC3"
		},
		{
			"bufferView":18,
			"componentType":5126,
			"count":1349,
			"type":"VEC2"
		},
		{
			"bufferView":19,
			"componentType":5123,
			"count":2142,
			"type":"SCALAR"
		},
		{
			"bufferView":20,
			"componentType":5126,
			"count":1351,
			"max":[
				-88.91790008544922,
				72.79190063476562,
				-139.09230041503906
			],
			"min":[
				-121.02320098876953,
				0.04039999842643738,
				-211.843994140625
			],
			"type":"VEC3"
		},
		{
			"bufferView":21,
			"componentType":5126,
			"count":1351,
			"type":"VEC3"
		},
		{
			"bufferView":22,
			"componentType":5126,
			"count":1351,
			"type":"VEC2"
		},
		{
			"bufferView":23,
			"componentType":5123,
			"count":2142,
			"type":"SCALAR"
		}
	],
	"bufferViews":[
		{
			"buffer":0,
			"byteLength":229668,
			"byteOffset":0,
			"target":34962
		},
		{
			"buffer":0,
			"byteLength":229668,
			"byteOffset":229668,
			"target":34962
		},
		{
			"buffer":0,
			"byteLength":153112,
			"byteOffset":459336,
			"target":34962
		},
		{
			"buffer":0,
			"byteLength":43608,
			"byteOffset":612448,
			"target":34963
		},
		{
			"buffer":0,
			"byteLength":4608,
			"byteOffset":656056,
			"target":34962
		},
		{
			"buffer":0,
			"byteLength":4608,
			"byteOffset":660664,
			"target":34962
		},
		{
			"buffer":0,
			"byteLength":3072,
			"byteOffset":665272,
			"target":34962
		},
		{
			"buffer":0,
			"byteLength":768,
			"byteOffset":668344,
			"target":34963
		},
		{
			"buffer":0,
			"byteLength":16140,
			"byteOffset":669112,
			"target":34962
		},
		{
			"buffer":0,
			"byteLength":16140,
			"byteOffset":685252,
			"target":34962
		},
		{
			"buffer":0,
			"byteLength":10760,
			"byteOffset":701392,
			"target":34962
		},
		{
			"buffer":0,
			"byteLength":4284,
			"byteOffset":712152,
			"target":34963
		},
		{
			"buffer":0,
			"byteLength":16068,
			"byteOffset":716436,
			"target":34962
		},
		{
			"buffer":0,
			"byteLength":16068,
			"byteOffset":732504,
			"target":34962
		},
		{
			"buffer":0,
			"byteLength":10712,
			"byteOffset":748572,
			"target":34962
		},
		{
			"buffer":0,
			"byteLength":4284,
			"byteOffset":759284,
			"target":34963
		},
		{
			"buffer":0,
			"byteLength":16188,
			"byteOffset":763568,
			"target":34962
		},
		{
			"buffer":0,
			"byteLength":16188,
			"byteOffset":779756,
			"target":34962
		},
		{
			"buffer":0,
			"byteLength":10792,
			"byteOffset":795944,
			"target":34962
		},
		{
			"buffer":0,
			"byteLength":4284,
			"byteOffset":806736,
			"target":34963
		},
		{
			"buffer":0,
			"byteLength":16212,
			"byteOffset":811020,
			"target":34962
		},
		{
			"buffer":0,
			"byteLength":16212,
			"byteOffset":827232,
			"target":34962
		},
		{
			"buffer":0,
			"byteLength":10808,
			"byteOffset":843444,
			"target":34962
		},
		{
			"buffer":0,
			"byteLength":4284,
			"byteOffset":854252,
			"target":34963
		}
	],
	"samplers":[
		{
			"magFilter":9729,
			"minFilter":9987
		}
	],
	"buffers":[
		{
			"byteLength":858536,
			"uri":"car.bin"
		}
	]
}
